<?xml version="1.0" standalone="no"?><!DOCTYPE svg PUBLIC "-//W3C//DTD SVG 1.1//EN" "http://www.w3.org/Graphics/SVG/1.1/DTD/svg11.dtd"><svg class="icon" width="200px" height="193.39px" viewBox="0 0 1059 1024" version="1.1" xmlns="http://www.w3.org/2000/svg"><path d="M253.488042 1024c-16.9 0-33.2875-5.1125-47.6125-15.3625-26.625-18.425-39.425-49.6625-34.3125-81.925l40.9625-251.9c1.5375-10.2375-1.5375-20.475-8.7-27.65L28.213042 466.4375c-22.0125-22.525-29.1875-55.3-19.45-84.9875 9.725-29.7 35.325-51.2 66.05-55.8125l237.575-36.35c10.75-1.5375 19.4625-8.1875 24.0625-17.925L441.388042 48.125c13.825-29.7 42.5-48.125 75.2625-48.125s61.4375 18.4375 75.2625 48.125l104.45 223.2375c4.6125 9.725 13.825 16.375 24.0625 17.925L958.000542 325.625a82.355 82.355 0 0 1 66.05 55.8125c10.2375 29.7 2.5625 62.4625-19.45 84.9875l-175.625 180.7375c-7.1625 7.175-10.2375 17.925-8.7 27.65l40.9625 251.9c5.125 31.75-8.1875 63.4875-34.3 81.925-26.1125 18.4375-59.9 20.4875-88.0625 4.6125l-206.85-114.6875c-9.725-5.1125-20.9875-5.1125-30.7125 0l-207.3625 115.2c-12.8125 6.65-26.6375 10.2375-40.4625 10.2375z m0 0" fill="#0084FF" /></svg>