<?xml version="1.0" standalone="no"?><!DOCTYPE svg PUBLIC "-//W3C//DTD SVG 1.1//EN" "http://www.w3.org/Graphics/SVG/1.1/DTD/svg11.dtd"><svg class="icon" width="200px" height="200.00px" viewBox="0 0 1024 1024" version="1.1" xmlns="http://www.w3.org/2000/svg"><path d="M972.8 906.24a66.56 66.56 0 0 1-66.56 66.56h-788.48a66.56 66.56 0 0 1-66.56-66.56V640h-51.2v281.6a102.4 102.4 0 0 0 102.4 102.4h819.2a102.4 102.4 0 0 0 102.4-102.4V640h-51.2v266.24zM0 588.8v25.6c0-8.8832 1.4848-17.3824 3.6096-25.6h-3.6096z" fill="#666666" /><path d="M51.2 629.76V588.8H3.6352a101.8112 101.8112 0 0 0-3.6096 25.6v25.6h51.2v-10.24zM1020.3904 588.8c2.1248 8.2176 3.6096 16.7168 3.6096 25.6v-25.6h-3.6096z" fill="#666666" /><path d="M972.8 588.8v51.2h51.2v-25.6c0-8.8832-1.4848-17.3824-3.6096-25.6h-47.5904z" fill="#666666" /><path d="M25.6 590.9248m-25.6 0a25.6 25.6 0 1 0 51.2 0 25.6 25.6 0 1 0-51.2 0Z" fill="#666666" /><path d="M998.4 588.8m-25.6 0a25.6 25.6 0 1 0 51.2 0 25.6 25.6 0 1 0-51.2 0Z" fill="#666666" /><path d="M512.1536 72.3968L746.9568 307.2H819.3536L512.1536 0 204.9536 307.2h72.3968z" fill="#666666" /><path d="M537.7536 742.3232a25.6 25.6 0 0 1-51.2 0v-665.6a25.6 25.6 0 0 1 51.2 0v665.6z" fill="#666666" /></svg>